<svg width="14.566000000000003" height="41.919998" xmlns="http://www.w3.org/2000/svg">

 <g>
  <title>background</title>
  <rect fill="none" id="canvas_background" height="402" width="582" y="-1" x="-1"/>
 </g>
 <g>
  <title>Layer 1</title>
  <g id="svg_1">
   <path opacity="0.9" fill="#000000" fill-rule="evenodd" stroke-width="0.2" stroke-miterlimit="4" stroke-dashoffset="0" id="path11141" d="m4.420048,1.249067c-3.39584,1.81997 -5.20528,5.11455 -4.09222,7.59296c1.18726,2.64364 5.26701,3.38972 9.10658,1.66537c3.83956,-1.72436 5.99216,-5.2694 4.8049,-7.91303c-1.18727,-2.64364 -5.26701,-3.38972 -9.10658,-1.66537c-0.23997,0.10777 -0.48628,0.19874 -0.71268,0.32007z"/>
   <path fill="none" fill-opacity="0.75" fill-rule="evenodd" stroke="#000000" stroke-width="1.5" stroke-miterlimit="4" id="path11143" d="m0.787548,7.582457l0,33.58757"/>
   <path fill="#000000" fill-rule="evenodd" stroke-width="1px" id="path12022" d="m0.782898,40.210187c-0.5625,-6.3125 4.84255,-8.57374 7.5,-11.5c2.52596,-2.78147 3.44867,-5.98972 3.34548,-8.9956c-0.02755,-0.80257 -0.24543,-4.28011 -2.61445,-7.76672c3.16792,8.74711 0.21847,12.25806 -2.66296,15.05158c-3.48994,3.38346 -6.08612,6.57218 -5.56807,13.21074z"/>
  </g>
 </g>
</svg>