<svg width="24.886" height="41.75" xmlns="http://www.w3.org/2000/svg">

 <g>
  <title>Layer 1</title>
  <path d="m-2.829951,-3.936971c-3.39584,1.81997 -5.20528,5.11455 -4.09222,7.59296c1.18726,2.64364 5.26701,3.38972 9.10658,1.66537c3.83956,-1.72436 5.99216,-5.2694 4.8049,-7.91303c-1.18727,-2.64364 -5.26701,-3.38972 -9.10658,-1.66537c-0.23997,0.10777 -0.48628,0.19874 -0.71268,0.32007z" id="path12112" stroke-dashoffset="0" stroke-miterlimit="4" stroke-width="0.2" fill-rule="evenodd" fill="#000000" opacity="0.9"/>
  <path d="m6.787549,-1.162458l0,-33.58757" id="path12114" stroke-miterlimit="4" stroke-width="1.5" stroke="#000000" fill-rule="evenodd" fill-opacity="0.75" fill="none"/>
  <path d="m6.782899,-33.790188c-0.5625,6.3125 4.84255,8.57374 7.5,11.5c2.52596,2.78147 3.44867,5.98972 3.34548,8.9956c-0.02755,0.80257 -0.24543,4.28011 -2.61445,7.76672c3.16792,-8.74711 0.21847,-12.25806 -2.66296,-15.05158c-3.48994,-3.38346 -6.08612,-6.57218 -5.56807,-13.21074z" id="path12116" stroke-width="1px" fill-rule="evenodd" fill="#000000"/>
 </g>
</svg>